<svg width="356" height="196" viewBox="0 0 356 196" fill="none" xmlns="http://www.w3.org/2000/svg">
<path d="M173.495 4.08C167.375 14.88 161.375 25.8 155.495 36.84C147.215 38.88 130.295 42.24 122.015 44.52C126.455 39.84 139.535 34.32 143.855 29.64C146.135 27.24 135.095 23.52 133.895 23.4C127.415 22.56 120.935 24.84 114.695 26.52C107.735 28.32 101.015 30.72 94.2951 33.36C91.8951 34.32 96.9351 37.56 97.5351 37.92C99.6951 39.12 103.415 40.92 105.935 39.96C111.095 37.92 116.255 36 121.415 34.44C109.175 47.4 96.8151 60.36 84.3351 73.32C82.6551 75 93.9351 81.36 96.5751 79.32C102.335 74.88 109.775 72.84 116.615 70.68C124.415 68.28 132.335 66.36 140.375 64.8C143.255 64.32 140.495 61.8 139.295 60.84C137.255 59.28 133.055 57.12 130.295 57.72C124.655 58.8 119.015 60.12 113.375 61.56C116.975 57.84 120.575 54 124.175 50.4C124.655 50.76 125.135 50.88 125.255 51C127.655 52.44 131.255 54 134.135 53.16C139.295 51.6 144.455 50.04 149.615 48.6C144.575 59.04 139.655 69.48 135.095 80.16C133.655 83.52 147.215 89.52 148.655 86.16C159.815 59.88 172.415 34.44 186.695 9.84C188.375 7.19999 175.535 0.719999 173.495 4.08ZM259.973 3.24C252.173 18.48 245.093 33.96 238.253 49.68C236.213 48.36 233.453 47.28 231.293 47.76C218.573 50.52 205.973 53.64 193.373 57C193.493 57 193.493 56.88 193.613 56.76C199.733 47.52 206.333 39.12 213.293 30.6C215.693 35.64 218.213 40.56 220.973 45.24C222.653 48 235.973 44.52 234.293 41.64C230.213 34.44 226.493 27 222.773 19.56C223.733 18.48 224.693 17.4 225.653 16.32C227.573 14.16 216.413 7.44 213.653 10.56C202.253 23.76 191.213 36.6 181.493 51C180.053 53.16 187.013 57.6 191.333 57.72C184.493 59.52 177.773 61.44 170.933 63.48C168.293 64.2 173.213 67.8 173.693 68.16C175.853 69.6 179.213 71.04 181.973 70.2C187.733 68.52 193.373 66.84 199.133 65.28C195.893 70.92 192.893 76.68 190.133 82.44C188.453 85.8 200.933 91.2 202.373 88.32C206.693 78.96 211.613 69.84 217.253 61.08C217.373 60.84 217.373 60.72 217.373 60.6C223.493 59.04 229.613 57.6 235.733 56.16C232.013 64.8 228.653 73.2 225.293 81.96C223.853 85.68 236.573 90.6 237.653 87.72C247.733 61.08 259.253 34.68 272.093 9C273.533 5.63999 261.413 0.239998 259.973 3.24Z" fill="#27AE60"/>
<path d="M0.333744 194H64.6538V172.04H26.7337V108.32H0.333744V194ZM92.3597 155.84C93.4397 149.12 97.5197 145.4 104.6 145.4C110.72 145.4 115.04 150.08 115.04 155.84H92.3597ZM137.84 168.2C137.84 143.96 127.16 130.16 102.44 130.16C82.7597 130.16 69.5597 144.92 69.5597 163.04C69.5597 183.8 84.5597 195.56 104.48 195.56C118.64 195.56 131.72 189.32 136.52 175.88H114.32C112.4 178.88 108.2 180.32 104.36 180.32C96.9197 180.32 92.8397 175.28 92.2397 168.2H137.84ZM172.986 112.76H149.226V131.72H138.666V146.36H149.226V176.12C149.226 193.16 160.386 194.72 170.466 194.72C175.506 194.72 180.906 194 185.706 194V176C183.906 176.24 182.106 176.36 180.306 176.36C174.306 176.36 172.986 173.84 172.986 168.08V146.36H185.706V131.72H172.986V112.76ZM218.493 112.76H194.733V131.72H184.173V146.36H194.733V176.12C194.733 193.16 205.893 194.72 215.973 194.72C221.013 194.72 226.413 194 231.213 194V176C229.413 176.24 227.613 176.36 225.813 176.36C219.813 176.36 218.493 173.84 218.493 168.08V146.36H231.213V131.72H218.493V112.76ZM255.6 155.84C256.68 149.12 260.76 145.4 267.84 145.4C273.96 145.4 278.28 150.08 278.28 155.84H255.6ZM301.08 168.2C301.08 143.96 290.4 130.16 265.68 130.16C246 130.16 232.8 144.92 232.8 163.04C232.8 183.8 247.8 195.56 267.72 195.56C281.88 195.56 294.96 189.32 299.76 175.88H277.56C275.64 178.88 271.44 180.32 267.6 180.32C260.16 180.32 256.08 175.28 255.48 168.2H301.08ZM307.666 194H331.426V169.4C331.426 156.08 336.466 150.56 345.826 150.56C350.626 150.56 352.786 151.28 355.186 152.12V131.12C352.906 130.52 350.626 130.16 348.226 130.16C339.586 130.16 334.546 134.24 330.706 141.68H330.466V131.72H307.666V194Z" fill="#222222"/>
</svg>
